<?xml version="1.0" encoding="UTF-8"?>
<svg id="LOGO" xmlns="http://www.w3.org/2000/svg" viewBox="0 0 144 144">
  <defs>
    <style>
      .cls-1 {
        fill: #9ceef2;
      }

      .cls-2 {
        fill: #fbb03b;
      }
    </style>
  </defs>
  <rect id="BG" class="cls-1" width="144" height="144"/>
  <polygon id="MINO_BG" data-name="MINO BG" class="cls-2" points="58.5 65.17 58.5 71.42 58.5 91.05 58.5 97.3 58.5 116.9 75.5 126.26 81.5 126.26 98.5 116.9 98.5 97.3 98.5 91.05 98.5 71.42 98.5 65.16 98.5 45.54 95.94 40.84 78.51 30.78 73.53 27.9 56.09 17.84 38.66 27.9 36.5 32.59 36.5 52.22 53.5 62.04 58.5 65.17"/>
  <path id="MINO_OUTLINE" data-name="MINO OUTLINE" d="M56.33,12.13l-24.83,14.33v28.88l22,12.7v51.9l25,13.78,25-13.78V39.36L56.33,12.13ZM98.5,91.05l-17,9.81v-19.63l17-9.81v19.63ZM58.5,45.54l17,9.81v19.63l-17-9.82v-19.63ZM78.51,50.91l-17.43-10.07,17.44-10.07,17.43,10.06-17.44,10.07ZM98.5,65.16l-17,9.82v-19.63l17-9.82v19.63ZM73.53,27.9l-17.44,10.07-17.43-10.07,17.43-10.07,17.44,10.06ZM36.5,52.22v-19.63l17,9.81v19.63l-17-9.81ZM75.5,81.24v19.63l-17-9.81v-19.63l17,9.82ZM58.5,97.3l17,9.81v19.15l-17-9.36v-19.6ZM81.5,126.26v-19.15l17-9.81v19.6l-17,9.36Z"/>
</svg>