<?xml version="1.0" encoding="UTF-8"?>
<svg id="Layer" xmlns="http://www.w3.org/2000/svg" viewBox="0 0 25 25">
  <defs>
    <style>
      .cls-1 {
        fill: #f2f2f2;
      }
    </style>
  </defs>
  <polygon id="BG" class="cls-1" points="9 11.16 9 12.8 9 16.79 9 18.11 9 21.77 12 23.68 14 23.68 17 21.77 17 17.78 17 16.47 17 12.48 17 11.16 17 7.17 16.38 6.18 12.8 4.11 11.78 3.52 8.2 1.46 4.62 3.52 4 4.83 4 8.51 7 10.5 9 11.16"/>
  <path id="OUTLINE" d="M8.17.25L3,3.23v5.78l5,2.89v10.54l5,2.76,5-2.76V5.92L8.17.25ZM17,16.47l-3,2v-3.99l3-2v3.99ZM9,7.17l3,2v3.99l-3-2v-3.99ZM12.8,8.24l-3.58-2.06,3.58-2.06,3.58,2.06-3.58,2.07ZM17,11.16l-3,2v-3.99l3-2v3.99ZM11.78,3.52l-3.58,2.06-3.58-2.06,3.58-2.06,3.58,2.06ZM4,8.51v-3.99l3,2v3.99l-3-2ZM12,14.47v3.99l-3-2v-4l3,2ZM9,17.78l3,2v3.9l-3-1.9v-3.99ZM14,23.68v-3.9l3-2v3.99l-3,1.9Z"/>
</svg>