<?xml version="1.0" encoding="UTF-8"?>
<svg id="LOGO" xmlns="http://www.w3.org/2000/svg" viewBox="0 0 48 48">
  <defs>
    <style>
      .cls-1 {
        fill: #9ceef2;
      }

      .cls-2 {
        fill: #fbb03b;
      }
    </style>
  </defs>
  <rect id="BG" class="cls-1" width="48" height="48"/>
  <polygon id="MINO_BG" data-name="MINO BG" class="cls-2" points="18.5 21.03 18.5 23.25 18.5 30.09 18.5 32.31 18.5 39.14 24.5 42.4 26.5 42.4 32.5 39.14 32.5 32.31 32.5 30.09 32.5 23.25 32.5 21.03 32.5 14.19 31.66 12.52 25.47 9 23.7 7.99 17.52 4.47 11.33 7.99 10.5 9.66 10.5 16.5 16.5 19.91 18.5 21.03"/>
  <path id="OUTLINE" d="M17.47,2.38l-8.97,5.11v10.05l8,4.56v18.08l9,4.89,9-4.89V12.09L17.47,2.38ZM32.5,30.09l-6,3.42v-6.84l6-3.42v6.84ZM18.5,14.19l6,3.42v6.84l-6-3.42v-6.84ZM25.47,16.04l-6.19-3.52,6.19-3.52,6.19,3.52-6.19,3.52ZM32.5,21.03l-6,3.42v-6.84l6-3.42v6.84ZM23.7,7.99l-6.19,3.52-6.18-3.52,6.18-3.52,6.19,3.52ZM10.5,16.5v-6.84l6,3.42v6.84l-6-3.42ZM24.5,26.67v6.84l-6-3.42v-6.84l6,3.42ZM18.5,32.31l6,3.42v6.67l-6-3.26v-6.83ZM26.5,42.4v-6.67l6-3.42v6.83l-6,3.26Z"/>
</svg>