<?xml version="1.0" encoding="UTF-8"?>
<svg id="Layer" xmlns="http://www.w3.org/2000/svg" viewBox="0 0 25 25">
  <defs>
    <style>
      .cls-1 {
        fill: #f2f2f2;
      }
    </style>
  </defs>
  <polygon id="BG" class="cls-1" points="9 11.37 9 12.51 9 15.98 9 17.11 9 20.57 12 22.23 13 22.23 16 20.57 16 17.11 16 15.98 16 12.51 16 11.37 16 7.91 15.6 7.05 12.49 5.26 11.61 4.75 8.51 2.96 5.4 4.75 5 5.6 5 9.07 8 10.8 9 11.37"/>
  <path id="OUTLINE" d="M8.48,1.91l-4.48,2.59v5.11l4,2.31v9.19l4.5,2.48,4.5-2.48V6.82L8.48,1.91ZM16,15.98l-3,1.73v-3.46l3-1.73v3.46ZM9,7.91l3,1.73v3.46l-3-1.73v-3.46ZM12.49,8.84l-3.1-1.79,3.1-1.79,3.1,1.79-3.1,1.79ZM16,11.37l-3,1.73v-3.46l3-1.73v3.46ZM11.61,4.75l-3.1,1.79-3.1-1.79,3.1-1.79,3.1,1.79ZM5,9.07v-3.46l3,1.73v3.46l-3-1.73ZM12,14.24v3.46l-3-1.73v-3.46l3,1.73ZM9,17.11l3,1.73v3.38l-3-1.65v-3.46ZM13,22.23v-3.38l3-1.73v3.46l-3,1.65Z"/>
</svg>