STARTFONT 2.1
FONT -FontForge-Untitled1-Regular-R-Normal--17-120-100-100-C-170-ISO8859-1
SIZE 12 100 100
FONTBOUNDINGBOX 14 15 1 0
COMMENT "Generated by fontforge, http://fontforge.sourceforge.net"
COMMENT "Copyright (c) 2025, Valentin Jonckheere"
STARTPROPERTIES 29
FOUNDRY "FontForge"
FAMILY_NAME "Untitled1"
WEIGHT_NAME "Regular"
SLANT "R"
SETWIDTH_NAME "Normal"
ADD_STYLE_NAME ""
PIXEL_SIZE 17
POINT_SIZE 120
RESOLUTION_X 100
RESOLUTION_Y 100
SPACING "C"
AVERAGE_WIDTH 170
CHARSET_REGISTRY "ISO8859"
CHARSET_ENCODING "1"
FONTNAME_REGISTRY ""
CHARSET_COLLECTIONS "ISOLatin1Encoding"
FONT_NAME "Untitled1"
FACE_NAME "Untitled1"
COPYRIGHT "Copyright (c) 2025, Valentin Jonckheere"
FONT_VERSION "001.000"
FONT_ASCENT 17
FONT_DESCENT 0
UNDERLINE_POSITION -2
UNDERLINE_THICKNESS 1
RAW_ASCENT 1000
RAW_DESCENT 0
NORM_SPACE 17
FIGURE_WIDTH -1
AVG_UPPERCASE_WIDTH 170
ENDPROPERTIES
CHARS 13
STARTCHAR space
ENCODING 32
SWIDTH 1000 0
DWIDTH 18 0
BBX 1 1 1 0
BITMAP
00
ENDCHAR
STARTCHAR A
ENCODING 65
SWIDTH 1000 0
DWIDTH 18 0
BBX 13 13 2 2
BITMAP
FFF8
FFF8
E038
E038
FFF8
FFF8
E038
E038
E038
E038
E038
E038
E038
ENDCHAR
STARTCHAR C
ENCODING 67
SWIDTH 1000 0
DWIDTH 18 0
BBX 13 13 2 2
BITMAP
FFF8
FFF8
FFF8
E000
E000
E000
E000
E000
E000
E000
FFF8
FFF8
FFF8
ENDCHAR
STARTCHAR E
ENCODING 69
SWIDTH 1000 0
DWIDTH 18 0
BBX 13 13 2 2
BITMAP
FFF8
FFF8
E000
E000
FF80
FF80
E000
E000
E000
E000
FFF8
FFF8
FFF8
ENDCHAR
STARTCHAR G
ENCODING 71
SWIDTH 1000 0
DWIDTH 18 0
BBX 13 13 2 2
BITMAP
FFF8
FFF8
FFF8
E000
E000
E000
E1F8
E1F8
E038
E038
FFF8
FFF8
FFF8
ENDCHAR
STARTCHAR H
ENCODING 72
SWIDTH 1000 0
DWIDTH 18 0
BBX 13 13 2 2
BITMAP
E038
E038
E038
E038
FFF8
FFF8
E038
E038
E038
E038
E038
E038
E038
ENDCHAR
STARTCHAR I
ENCODING 73
SWIDTH 1000 0
DWIDTH 18 0
BBX 13 13 2 2
BITMAP
FFF8
FFF8
FFF8
0700
0700
0700
0700
0700
0700
0700
FFF8
FFF8
FFF8
ENDCHAR
STARTCHAR M
ENCODING 77
SWIDTH 1000 0
DWIDTH 18 0
BBX 13 13 2 2
BITMAP
FFF8
FFF8
FFF8
E738
E738
E738
E738
E738
E738
E038
E038
E038
E038
ENDCHAR
STARTCHAR N
ENCODING 78
SWIDTH 1000 0
DWIDTH 18 0
BBX 13 13 2 2
BITMAP
FFF8
FFF8
FFF8
E038
E038
E038
E038
E038
E038
E038
E038
E038
E038
ENDCHAR
STARTCHAR O
ENCODING 79
SWIDTH 1000 0
DWIDTH 18 0
BBX 13 13 2 2
BITMAP
FFF8
FFF8
FFF8
E038
E038
E038
E038
E038
E038
E038
FFF8
FFF8
FFF8
ENDCHAR
STARTCHAR R
ENCODING 82
SWIDTH 1000 0
DWIDTH 18 0
BBX 13 13 2 2
BITMAP
FFE0
FFE0
E0E0
E0E0
FFF8
FFF8
E038
E038
E038
E038
E038
E038
E038
ENDCHAR
STARTCHAR S
ENCODING 83
SWIDTH 1000 0
DWIDTH 18 0
BBX 13 13 2 2
BITMAP
FFF8
FFF8
E000
E000
FFF8
FFF8
0078
0078
E078
E078
FFF8
FFF8
FFF8
ENDCHAR
STARTCHAR T
ENCODING 84
SWIDTH 1000 0
DWIDTH 18 0
BBX 13 13 2 2
BITMAP
FFF8
FFF8
FFF8
0700
0700
0700
0700
0700
0700
0700
0700
0700
0700
ENDCHAR
STARTCHAR U
ENCODING 85
SWIDTH 1000 0
DWIDTH 18 0
BBX 13 13 2 2
BITMAP
E038
E038
E038
E038
E038
E038
E038
E038
E038
E038
FFF8
FFF8
FFF8
ENDCHAR
STARTCHAR W
ENCODING 87
SWIDTH 1000 0
DWIDTH 18 0
BBX 13 13 2 2
BITMAP
E038
E038
E038
E038
E738
E738
E738
E738
E738
E738
FFF8
FFF8
FFF8
ENDCHAR
ENDFONT
