STARTFONT 2.1
FONT -FontForge-Untitled2-Regular-R-Normal--10-100-75-75-C-100-ISO8859-1
SIZE 12 75 75
FONTBOUNDINGBOX 10 10 0 0
COMMENT "Generated by fontforge, http://fontforge.sourceforge.net"
COMMENT "Copyright (c) 2025, Valentin Jonckheere"
STARTPROPERTIES 28
FOUNDRY "FontForge"
FAMILY_NAME "Untitled2"
WEIGHT_NAME "Regular"
SLANT "R"
SETWIDTH_NAME "Normal"
ADD_STYLE_NAME ""
PIXEL_SIZE 12
POINT_SIZE 100
RESOLUTION_X 75
RESOLUTION_Y 75
SPACING "C"
AVERAGE_WIDTH 100
CHARSET_REGISTRY "ISO8859"
CHARSET_ENCODING "1"
FONTNAME_REGISTRY ""
CHARSET_COLLECTIONS "ISOLatin1Encoding"
FONT_NAME "Untitled2"
FACE_NAME "Untitled2"
COPYRIGHT "Copyright (c) 2025, Valentin Jonckheere"
FONT_VERSION "001.000"
FONT_ASCENT 10
FONT_DESCENT 0
UNDERLINE_POSITION -1
UNDERLINE_THICKNESS 1
RAW_ASCENT 1000
RAW_DESCENT 0
NORM_SPACE 13
FIGURE_WIDTH -1
AVG_UPPERCASE_WIDTH 100
ENDPROPERTIES
CHARS 15
STARTCHAR space
ENCODING 32
SWIDTH 1300 0
DWIDTH 13 0
BBX 1 1 9 0
BITMAP
00
ENDCHAR
STARTCHAR A
ENCODING 65
SWIDTH 1300 0
DWIDTH 13 0
BBX 10 10 0 0
BITMAP
FFC0
FFC0
C0C0
C0C0
C0C0
FFC0
FFC0
C0C0
C0C0
C0C0
ENDCHAR
STARTCHAR C
ENCODING 67
SWIDTH 1300 0
DWIDTH 13 0
BBX 10 10 0 0
BITMAP
FFC0
FFC0
C000
C000
C000
C000
C000
C000
FFC0
FFC0
ENDCHAR
STARTCHAR E
ENCODING 69
SWIDTH 1300 0
DWIDTH 13 0
BBX 10 10 0 0
BITMAP
FFC0
FFC0
C000
FE00
FE00
C000
C000
C000
FFC0
FFC0
ENDCHAR
STARTCHAR G
ENCODING 71
SWIDTH 1300 0
DWIDTH 13 0
BBX 10 10 0 0
BITMAP
FFC0
FFC0
C000
C000
C000
C3C0
C3C0
C0C0
FFC0
FFC0
ENDCHAR
STARTCHAR H
ENCODING 72
SWIDTH 1300 0
DWIDTH 13 0
BBX 10 10 0 0
BITMAP
C0C0
C0C0
C0C0
FFC0
FFC0
C0C0
C0C0
C0C0
C0C0
C0C0
ENDCHAR
STARTCHAR I
ENCODING 73
SWIDTH 1300 0
DWIDTH 13 0
BBX 10 10 0 0
BITMAP
FFC0
FFC0
0C00
0C00
0C00
0C00
0C00
0C00
FFC0
FFC0
ENDCHAR
STARTCHAR M
ENCODING 77
SWIDTH 1300 0
DWIDTH 13 0
BBX 10 10 0 0
BITMAP
FFC0
FFC0
CCC0
CCC0
CCC0
CCC0
CCC0
C0C0
C0C0
C0C0
ENDCHAR
STARTCHAR N
ENCODING 78
SWIDTH 1300 0
DWIDTH 13 0
BBX 10 10 0 0
BITMAP
FFC0
FFC0
C0C0
C0C0
C0C0
C0C0
C0C0
C0C0
C0C0
C0C0
ENDCHAR
STARTCHAR O
ENCODING 79
SWIDTH 1300 0
DWIDTH 13 0
BBX 10 10 0 0
BITMAP
FFC0
FFC0
C0C0
C0C0
C0C0
C0C0
C0C0
C0C0
FFC0
FFC0
ENDCHAR
STARTCHAR R
ENCODING 82
SWIDTH 1300 0
DWIDTH 13 0
BBX 10 10 0 0
BITMAP
FF00
FF00
C300
FFC0
FFC0
C0C0
C0C0
C0C0
C0C0
C0C0
ENDCHAR
STARTCHAR S
ENCODING 83
SWIDTH 1300 0
DWIDTH 13 0
BBX 10 10 0 0
BITMAP
FFC0
FFC0
C000
FFC0
FFC0
00C0
00C0
C0C0
FFC0
FFC0
ENDCHAR
STARTCHAR T
ENCODING 84
SWIDTH 1300 0
DWIDTH 13 0
BBX 10 10 0 0
BITMAP
FFC0
FFC0
0C00
0C00
0C00
0C00
0C00
0C00
0C00
0C00
ENDCHAR
STARTCHAR U
ENCODING 85
SWIDTH 1300 0
DWIDTH 13 0
BBX 10 10 0 0
BITMAP
C0C0
C0C0
C0C0
C0C0
C0C0
C0C0
C0C0
C0C0
FFC0
FFC0
ENDCHAR
STARTCHAR W
ENCODING 87
SWIDTH 1300 0
DWIDTH 13 0
BBX 10 10 0 0
BITMAP
C0C0
C0C0
C0C0
CCC0
CCC0
CCC0
CCC0
CCC0
FFC0
FFC0
ENDCHAR
ENDFONT
